<?xml version="1.0" standalone="no"?>
<!DOCTYPE svg PUBLIC "-//W3C//DTD SVG 20010904//EN"
 "http://www.w3.org/TR/2001/REC-SVG-20010904/DTD/svg10.dtd">
<svg version="1.0" xmlns="http://www.w3.org/2000/svg"
 width="560.000000pt" height="560.000000pt" viewBox="0 0 560.000000 560.000000"
 preserveAspectRatio="xMidYMid meet">
<metadata>
Created by potrace 1.11, written by Peter Selinger 2001-2013
</metadata>
<g transform="translate(0.000000,560.000000) scale(0.100000,-0.100000)"
fill="#000000" stroke="none">
<path d="M620 5593 c-39 -8 -101 -63 -121 -107 -18 -40 -19 -137 -19 -2686 0
-2545 1 -2647 19 -2685 22 -49 69 -91 119 -105 25 -8 224 -10 627 -8 l590 3
41 29 c22 17 52 46 65 65 l24 36 1 903 c1 497 4 906 7 908 3 3 277 7 609 9
331 1 632 5 668 9 265 24 441 56 639 116 482 146 815 392 1014 747 108 193
166 379 201 648 23 170 12 546 -20 697 -2 13 -9 45 -14 72 -23 117 -81 276
-147 403 -252 491 -783 821 -1478 917 -60 9 -130 19 -155 22 -53 8 -2633 14
-2670 7z m2404 -1114 c23 -4 59 -10 80 -13 116 -18 245 -86 331 -174 99 -103
149 -199 180 -347 19 -93 19 -280 0 -362 -7 -29 -13 -57 -14 -61 -6 -33 -40
-116 -67 -162 -98 -168 -279 -270 -524 -296 -74 -8 -1059 -12 -1061 -4 -4 12
-5 1416 -2 1422 5 9 1026 7 1077 -3z"/>
</g>
</svg>
